<?xml version="1.0" encoding="utf-8"?>
<!-- Generator: Adobe Illustrator 22.0.1, SVG Export Plug-In . SVG Version: 6.00 Build 0)  -->
<svg version="1.1" id="Layer_1" xmlns="http://www.w3.org/2000/svg" xmlns:xlink="http://www.w3.org/1999/xlink" x="0px" y="0px"
	 viewBox="0 0 36 36" style="enable-background:new 0 0 36 36;" xml:space="preserve">
<style type="text/css">
	.st0{fill:#419641;}
</style>
<g transform="translate(0.000000,34.000000) scale(0.100000,-0.100000)">
	<path class="st0" d="M86.8,308.2c-19.1-11.6-43.4-36-55.1-55.1c-28.6-47.6-28.6-138.7,0-186.4C63.5,16,111.2-9.4,180-9.4
		c105.9,0,169.4,63.5,169.4,169.4c0,68.8-25.4,116.5-76.2,148.2C225.5,336.8,134.5,336.8,86.8,308.2z M260.5,240.5
		c29.6-29.6,36-44.5,36-80.5c0-63.5-52.9-116.5-116.5-116.5c-36,0-50.8,6.4-80.5,36s-36,44.5-36,80.5s6.4,50.8,36,80.5
		s44.5,36,80.5,36S230.8,270.1,260.5,240.5z"/>
	<path class="st0" d="M139.8,250c-22.2-9.5-40.2-28.6-50.8-52.9C67.8,145.2,90,91.2,142.9,70c32.8-14.8,41.3-14.8,74.1,0
		c82.6,33.9,82.6,146.1,1.1,180C174.7,269.1,183.2,269.1,139.8,250z"/>
</g>
</svg>
