<?xml version="1.0" standalone="no"?>
<!DOCTYPE svg PUBLIC "-//W3C//DTD SVG 20010904//EN"
 "http://www.w3.org/TR/2001/REC-SVG-20010904/DTD/svg10.dtd">
<svg version="1.0" xmlns="http://www.w3.org/2000/svg"
 width="36" height="36" viewBox="0 0 34.000000 34.000000"
 preserveAspectRatio="xMidYMid meet">

<g transform="translate(0.000000,34.000000) scale(0.100000,-0.100000)"
fill="#FC7F3F" stroke="none">
<path d="M82 310 c-18 -11 -41 -34 -52 -52 -27 -45 -27 -131 0 -176 30 -48 75
-72 140 -72 100 0 160 60 160 160 0 65 -24 110 -72 140 -45 27 -131 27 -176 0z
m164 -64 c28 -28 34 -42 34 -76 0 -60 -50 -110 -110 -110 -34 0 -48 6 -76 34
-28 28 -34 42 -34 76 0 34 6 48 34 76 28 28 42 34 76 34 34 0 48 -6 76 -34z"/>
<path d="M132 255 c-21 -9 -38 -27 -48 -50 -20 -49 1 -100 51 -120 31 -14 39
-14 70 0 78 32 78 138 1 170 -41 18 -33 18 -74 0z"/>
</g>
</svg>
